<svg xmlns="http://www.w3.org/2000/svg" width="251.161" height="336.007" viewBox="0 0 251.161 336.007">
  <g id="agenda" transform="translate(-42.42)">
    <g id="组_1" data-name="组 1">
      <path id="路径_1" data-name="路径 1" d="M274.021,0H84.9A42.56,42.56,0,0,0,42.42,42.28V293.72A42.56,42.56,0,0,0,84.9,336H274.14a18.929,18.929,0,0,0,19.44-19.16V19.56A19.6,19.6,0,0,0,274.021,0ZM190.1,16h47V91.04l-16.68-26.6a8,8,0,0,0-13.72,0L190.1,90.92ZM58.621,42.28A26.4,26.4,0,0,1,84.9,16h89.2V97.6a14.44,14.44,0,0,0,9.96,14.4c7.04,2.12,13.36-2.44,17.12-8.44l12.44-20,12.44,20c3.72,5.92,10.04,10.48,17.28,8.44a14.439,14.439,0,0,0,9.96-14.32V16.2h20.84a3.4,3.4,0,0,1,3.36,3.36V251.555a19.5,19.5,0,0,0-3.36-.275H84.9a42.243,42.243,0,0,0-26.28,9.16V42.28ZM277.5,285.8,93.06,286a8,8,0,0,0,0,16l184.44-.2v14.88a3.281,3.281,0,0,1-3.36,3.36H84.9a26.3,26.3,0,0,1,0-52.6H274.14a3.4,3.4,0,0,1,3.36,3.36v15Z" fill="#b8b8b8"/>
    </g>
  </g>
</svg>
