<svg xmlns="http://www.w3.org/2000/svg" width="213.683" height="470" viewBox="0 0 213.683 470">
  <g id="组_1" data-name="组 1" transform="translate(-592 -381)">
    <g id="milk-bottle" transform="translate(463.842 381)">
      <path id="路径_1" data-name="路径 1" d="M332.026,155.641,286.64,65.715V45h2.5a7.5,7.5,0,0,0,7.5-7.5V7.5a7.5,7.5,0,0,0-7.5-7.5H180.86a7.5,7.5,0,0,0-7.5,7.5v30a7.5,7.5,0,0,0,7.5,7.5h2.5V65.715l-45.386,89.926c-5.5,10.9-9.816,29.017-9.816,41.233V442.5a27.531,27.531,0,0,0,27.5,27.5H314.341a27.531,27.531,0,0,0,27.5-27.5V196.874c0-12.217-4.311-30.328-9.815-41.233ZM188.36,15h93.279V30H188.36V15Zm9.2,55.879a7.5,7.5,0,0,0,.8-3.379V45h73.279V67.5a7.5,7.5,0,0,0,.8,3.379l28.543,56.553c-5.411,1.754-9.2,4.583-12.487,7.037-4.452,3.329-7.669,5.733-14.841,5.733s-10.389-2.4-14.841-5.733c-5.2-3.884-11.663-8.719-23.823-8.719s-18.625,4.835-23.821,8.72c-4.451,3.328-7.667,5.732-14.838,5.732s-10.387-2.4-14.838-5.732c-3.282-2.454-7.075-5.283-12.485-7.037l28.544-56.554ZM326.841,442.5a12.514,12.514,0,0,1-12.5,12.5H155.659a12.514,12.514,0,0,1-12.5-12.5V196.874c0-9.874,3.758-25.661,8.207-34.476L162.1,141.127c4.3.8,7,2.8,10.415,5.355,5.2,3.885,11.662,8.72,23.82,8.72s18.625-4.835,23.82-8.72c4.451-3.328,7.667-5.732,14.838-5.732s10.389,2.4,14.841,5.733c5.2,3.885,11.663,8.719,23.822,8.719s18.626-4.835,23.823-8.719c3.416-2.554,6.111-4.559,10.417-5.356L318.634,162.4c4.448,8.813,8.207,24.6,8.207,34.475V442.5Z" fill="#fff"/>
      <path id="路径_2" data-name="路径 2" d="M165.659,395a7.5,7.5,0,0,0-7.5,7.5v30a7.5,7.5,0,0,0,15,0v-30A7.5,7.5,0,0,0,165.659,395Z" fill="#fff"/>
      <path id="路径_3" data-name="路径 3" d="M174.832,165.842a7.5,7.5,0,0,0-10.075,3.315c-3.33,6.6-6.6,20.326-6.6,27.717V372.5a7.5,7.5,0,0,0,15,0V196.874c0-5.071,2.7-16.431,4.989-20.957A7.5,7.5,0,0,0,174.832,165.842Z" fill="#fff"/>
      <path id="路径_4" data-name="路径 4" d="M220.86,75h28.279a7.5,7.5,0,0,0,0-15H220.86a7.5,7.5,0,0,0,0,15Z" fill="#fff"/>
    </g>
    <g id="tea-leaf" transform="translate(647 517.477)">
      <path id="路径_5" data-name="路径 5" d="M339.387,151.4a3.061,3.061,0,0,0-2.2-2.462c-15.473-4.37-31.362-.122-41.993,11.229a51.09,51.09,0,0,1,1.184,24.5V194.2c32.313-5.433,25.859-28.059,41.69-39.774A3.059,3.059,0,0,0,339.387,151.4Z" transform="translate(-234.979 -70.628)" fill="#fff"/>
      <path id="路径_6" data-name="路径 6" d="M2.611,59.187a3.06,3.06,0,0,0-1.559,5.336c17.1,16.348,4.585,43.151,48.109,51.88V136.05a3.06,3.06,0,0,0,6.12,0V113.423c6.79-30.981-21.034-59.66-52.669-54.236Z" transform="translate(0 0)" fill="#fff"/>
    </g>
  </g>
</svg>
