<svg xmlns="http://www.w3.org/2000/svg" width="7.938" height="7.938" viewBox="0 0 7.938 7.938">
  <g id="layer2" transform="translate(-0.265 -0.265)">
    <path id="path824" d="M4.233.265A3.969,3.969,0,1,0,8.2,4.233,3.973,3.973,0,0,0,4.233.265Zm0,.529a3.441,3.441,0,1,1-3.44,3.44A3.437,3.437,0,0,1,4.233.794Zm0,1.324a.265.265,0,0,0-.26.268v.223a.864.864,0,0,0-.793.832.946.946,0,0,0,.349.754,1.979,1.979,0,0,0,.625.291,1.735,1.735,0,0,1,.467.205.346.346,0,0,1,.144.338c0,.441-1.056.441-1.056,0a.265.265,0,1,0-.529,0,.866.866,0,0,0,.793.833v.222a.265.265,0,1,0,.529,0V5.861a.866.866,0,0,0,.793-.833.946.946,0,0,0-.35-.754,1.981,1.981,0,0,0-.625-.291,1.737,1.737,0,0,1-.467-.2.346.346,0,0,1-.144-.338c0-.441,1.056-.441,1.056,0a.265.265,0,1,0,.53,0A.866.866,0,0,0,4.5,2.609V2.386a.265.265,0,0,0-.269-.268Z" fill="#42602e"/>
  </g>
</svg>
