<svg xmlns="http://www.w3.org/2000/svg" width="284.264" height="456.478" viewBox="0 0 284.264 456.478">
  <g id="conical-flask" transform="translate(-86.107)">
    <path id="路径_2" data-name="路径 2" d="M367.528,383.04,288.594,145.185V50.633A25.407,25.407,0,0,0,285.566,0H170.912a25.407,25.407,0,0,0-3.028,50.633v94.552L88.95,383.04a55.848,55.848,0,0,0,53.006,73.438H314.522a55.848,55.848,0,0,0,53.006-73.438ZM165.5,25.41A5.416,5.416,0,0,1,170.91,20H285.566a5.41,5.41,0,1,1,0,10.82H170.912a5.416,5.416,0,0,1-5.412-5.41Zm178.09,396.2a35.47,35.47,0,0,1-29.068,14.868H141.956a35.848,35.848,0,0,1-34.024-47.139l79.443-239.388a10,10,0,0,0,.509-3.15V50.82h80.709V146.8a10.006,10.006,0,0,0,.509,3.149L348.545,389.34A35.465,35.465,0,0,1,343.59,421.61Z" fill="#b8b8b8"/>
    <path id="路径_3" data-name="路径 3" d="M296.432,264.053a10,10,0,0,0-3.442-4.813c-.191-.145-19.3-14.494-37.717-13.223-14.325.987-26.321,5.259-35.654,12.7a38.143,38.143,0,0,1-45.112,1.926A10,10,0,0,0,159.46,265.8L117.42,392.493a25.865,25.865,0,0,0,24.541,33.99h172.56a25.854,25.854,0,0,0,24.531-33.99Zm22.833,139.993-.011.016a5.476,5.476,0,0,1-4.733,2.421H141.96a5.506,5.506,0,0,1-4.76-2.458,5.445,5.445,0,0,1-.8-5.232l38.361-115.6a58.076,58.076,0,0,0,57.319-8.834c6.186-4.929,14.221-7.671,24.565-8.384,7.232-.5,16.813,4.444,21.875,7.617L320.067,398.8a5.472,5.472,0,0,1-.8,5.248Z" fill="#b8b8b8"/>
  </g>
</svg>
