<svg id="instagram" xmlns="http://www.w3.org/2000/svg" width="512" height="512" viewBox="0 0 512 512">
  <path id="路径_11" data-name="路径 11" d="M376,91H136a45.052,45.052,0,0,0-45,45V376a45.052,45.052,0,0,0,45,45H376a45.052,45.052,0,0,0,45-45V136A45.052,45.052,0,0,0,376,91ZM256,361A105,105,0,1,1,361,256,105.127,105.127,0,0,1,256,361ZM361,181a30,30,0,1,1,30-30A30.038,30.038,0,0,1,361,181Zm0,0" fill="#42602e"/>
  <path id="路径_12" data-name="路径 12" d="M256,181a75,75,0,1,0,75,75A75.09,75.09,0,0,0,256,181Zm0,0" fill="#42602e"/>
  <path id="路径_13" data-name="路径 13" d="M436,0H76C34.648,0,0,34.648,0,76V436c0,41.352,34.648,76,76,76H436c41.352,0,76-34.648,76-76V76C512,34.648,477.352,0,436,0Zm15,376a75.09,75.09,0,0,1-75,75H136a75.089,75.089,0,0,1-75-75V136a75.089,75.089,0,0,1,75-75H376a75.089,75.089,0,0,1,75,75Zm0,0" fill="#42602e"/>
</svg>
