<svg xmlns="http://www.w3.org/2000/svg" width="333.668" height="491.582" viewBox="0 0 333.668 491.582">
  <g id="location-pin" transform="translate(-78.957)">
    <g id="组_2" data-name="组 2">
      <path id="路径_14" data-name="路径 14" d="M245.791,0C153.8,0,78.957,74.841,78.957,166.833c0,36.967,21.764,93.187,68.493,176.926,31.887,57.138,63.627,105.4,64.966,107.433l22.941,34.773a12.5,12.5,0,0,0,20.868,0l22.94-34.771c1.326-2.01,32.835-49.855,64.967-107.435,46.729-83.735,68.493-139.955,68.493-176.926C412.625,74.841,337.783,0,245.791,0ZM322.3,331.576c-31.685,56.775-62.7,103.869-64,105.848l-12.508,18.959-12.5-18.954c-1.314-1.995-32.563-49.511-64.007-105.853-43.345-77.676-65.323-133.1-65.323-164.743C103.957,88.626,167.583,25,245.791,25S387.625,88.626,387.625,166.833C387.625,198.476,365.647,253.9,322.3,331.576Z" fill="#42602e"/>
      <path id="路径_15" data-name="路径 15" d="M245.791,73.291a92.5,92.5,0,1,0,92.5,92.5A92.6,92.6,0,0,0,245.791,73.291Zm0,160a67.5,67.5,0,1,1,67.5-67.5A67.576,67.576,0,0,1,245.791,233.291Z" fill="#42602e"/>
    </g>
  </g>
</svg>
