<svg xmlns="http://www.w3.org/2000/svg" width="44" height="58" viewBox="0 0 44 58">
  <path id="peanut-butter" d="M48.91,16.5A3.087,3.087,0,0,1,48,14.3V10.771a3.167,3.167,0,0,0,2-2.938V6.167A3.17,3.17,0,0,0,46.833,3H17.167A3.17,3.17,0,0,0,14,6.167V7.833a3.167,3.167,0,0,0,2,2.938V14.3a3.087,3.087,0,0,1-.91,2.2A17.265,17.265,0,0,0,10,28.784V51.5A9.511,9.511,0,0,0,19.5,61h25A9.511,9.511,0,0,0,54,51.5V28.784A17.265,17.265,0,0,0,48.91,16.5Zm-29.447,13.5a29.768,29.768,0,0,0,6.763-.771,45.313,45.313,0,0,0,7.418-2.561c3.459-1.436,6.734-2.784,11.324-2.65a23.548,23.548,0,0,1,6.6,1.207A15.456,15.456,0,0,1,52,28.784V34H12V29.082a32.683,32.683,0,0,0,7.463.91ZM12,36H52V50H12ZM16,6.167A1.168,1.168,0,0,1,17.167,5H46.833A1.168,1.168,0,0,1,48,6.167V7.833A1.168,1.168,0,0,1,46.833,9H17.167A1.168,1.168,0,0,1,16,7.833Zm.5,11.743A5.073,5.073,0,0,0,18,14.3V11H46v3.3a5.073,5.073,0,0,0,1.5,3.611,15.352,15.352,0,0,1,3.347,5,25.019,25.019,0,0,0-5.812-.9c-5.031-.152-8.49,1.281-12.154,2.8a43.941,43.941,0,0,1-7.1,2.46A29.22,29.22,0,0,1,12.1,27.06a15.257,15.257,0,0,1,4.4-9.15ZM44.5,59h-25a7.5,7.5,0,0,1-7.475-7H51.975A7.5,7.5,0,0,1,44.5,59Z" transform="translate(-10 -3)" fill="#fff"/>
</svg>
