<svg xmlns="http://www.w3.org/2000/svg" width="45.53" height="45.53" viewBox="0 0 45.53 45.53">
  <g id="profile-user" transform="translate(-0.002)">
    <path id="路径_17" data-name="路径 17" d="M22.766,0A22.765,22.765,0,1,0,45.532,22.766,22.765,22.765,0,0,0,22.766,0Zm0,6.807a7.53,7.53,0,1,1-7.529,7.53,7.53,7.53,0,0,1,7.529-7.53Zm0,32.771a16.708,16.708,0,0,1-10.88-4.012,3.209,3.209,0,0,1-1.126-2.439,7.594,7.594,0,0,1,7.631-7.592h8.762a7.583,7.583,0,0,1,7.619,7.592,3.2,3.2,0,0,1-1.125,2.438,16.7,16.7,0,0,1-10.881,4.014Z" fill="#b8b8b8"/>
  </g>
</svg>
