<svg xmlns="http://www.w3.org/2000/svg" width="326" height="512" viewBox="0 0 326 512">
  <g id="soda" transform="translate(-93 0)">
    <path id="路径_21" data-name="路径 21" d="M396.5,180h-9.651l-13.761-39.943A7.5,7.5,0,0,0,366,135H278.5V74.113l90.443-31.158a7.5,7.5,0,0,0,4.647-9.534L363.819,5.057A7.5,7.5,0,0,0,354.285.409l-95.5,32.9A37.511,37.511,0,0,0,233.5,68.764V135H146a7.5,7.5,0,0,0-7.091,5.057L125.151,180H115.5a22.5,22.5,0,0,0,0,45h8.255l29.79,280.292A7.5,7.5,0,0,0,161,512H351a7.5,7.5,0,0,0,7.458-6.708L388.245,225H396.5a22.5,22.5,0,0,0,0-45ZM248.5,68.764a22.508,22.508,0,0,1,15.172-21.273L352.08,17.033l4.886,14.182L268.557,61.673a7.5,7.5,0,0,0-5.057,7.091V135h-15ZM344.252,497h-176.5L138.839,225H373.16ZM396.5,210h-281a7.5,7.5,0,0,1,0-15h15a7.5,7.5,0,0,0,7.091-5.057L151.351,150h209.3l10.335,30H162.23a7.5,7.5,0,1,0,0,15h219.1c.115,0,.233,0,.349,0H396.5a7.5,7.5,0,0,1,0,15Z" fill="#42602e"/>
  </g>
</svg>
