<svg xmlns="http://www.w3.org/2000/svg" width="512.026" height="394.981" viewBox="0 0 512.026 394.981">
  <g id="tea-leaf" transform="translate(0 -58.523)">
    <path id="路径_5" data-name="路径 5" d="M511.836,167.591a15,15,0,0,0-10.779-12.069c-75.855-21.421-153.744-.6-205.862,55.05A250.457,250.457,0,0,1,301,330.7V377.41c158.4-26.635,126.766-137.555,204.378-194.983A15,15,0,0,0,511.836,167.591Z" fill="#42602e"/>
    <path id="路径_6" data-name="路径 6" d="M12.8,61.778A15,15,0,0,0,5.158,87.936C89,168.08,27.633,299.475,241,342.265v96.318c.793,19.9,29.215,19.887,30,0V327.66C304.288,175.78,167.887,35.189,12.8,61.778Z" fill="#42602e"/>
  </g>
</svg>
