<svg xmlns="http://www.w3.org/2000/svg" width="310" height="218.166" viewBox="0 0 310 218.166">
  <g id="XMLID_822_" transform="translate(0 -45.917)">
    <path id="XMLID_823_" d="M297.917,64.645c-11.19-13.3-31.85-18.728-71.306-18.728H83.386c-40.359,0-61.369,5.776-72.517,19.938C0,79.663,0,100.008,0,128.166v53.669c0,54.551,12.9,82.248,83.386,82.248H226.612c34.216,0,53.176-4.788,65.442-16.527C304.633,235.518,310,215.863,310,181.835V128.166C310,98.471,309.159,78.006,297.917,64.645Zm-98.9,97.765L133.983,196.4a10,10,0,0,1-14.632-8.863V119.774A10,10,0,0,1,133.96,110.9L199,144.672a10,10,0,0,1,.023,17.738Z" fill="#fff"/>
  </g>
</svg>
